<svg width="28" height="28" viewBox="0 0 28 28" fill="none" xmlns="http://www.w3.org/2000/svg">
<path fill-rule="evenodd" clip-rule="evenodd" d="M7.41015 10.2102C7.67268 9.94772 8.02872 9.80028 8.39995 9.80028C8.77117 9.80028 9.12721 9.94772 9.38974 10.2102L13.9999 14.8204L18.6101 10.2102C18.7393 10.0765 18.8938 9.96981 19.0646 9.89644C19.2354 9.82306 19.4191 9.78444 19.605 9.78283C19.7909 9.78121 19.9752 9.81664 20.1473 9.88703C20.3193 9.95742 20.4756 10.0614 20.6071 10.1928C20.7385 10.3243 20.8425 10.4806 20.9129 10.6526C20.9833 10.8247 21.0187 11.0091 21.0171 11.1949C21.0155 11.3808 20.9769 11.5645 20.9035 11.7353C20.8301 11.9062 20.7235 12.0606 20.5897 12.1898L14.9897 17.7898C14.7272 18.0522 14.3712 18.1997 13.9999 18.1997C13.6287 18.1997 13.2727 18.0522 13.0101 17.7898L7.41015 12.1898C7.14769 11.9272 7.00024 11.5712 7.00024 11.2C7.00024 10.8287 7.14769 10.4727 7.41015 10.2102V10.2102Z" fill="#111827"/>
</svg>
