<svg width="24" height="24" viewBox="0 0 24 24" fill="none" xmlns="http://www.w3.org/2000/svg">
<path d="M10.8001 2.39999C10.4818 2.39999 10.1766 2.52642 9.95157 2.75147C9.72653 2.97651 9.6001 3.28173 9.6001 3.59999C9.6001 3.91825 9.72653 4.22348 9.95157 4.44852C10.1766 4.67357 10.4818 4.79999 10.8001 4.79999H13.2001C13.5184 4.79999 13.8236 4.67357 14.0486 4.44852C14.2737 4.22348 14.4001 3.91825 14.4001 3.59999C14.4001 3.28173 14.2737 2.97651 14.0486 2.75147C13.8236 2.52642 13.5184 2.39999 13.2001 2.39999H10.8001Z" fill="#111827"/>
<path fill-rule="evenodd" clip-rule="evenodd" d="M4.80005 6.00001C4.80005 5.36349 5.05291 4.75304 5.50299 4.30295C5.95308 3.85286 6.56353 3.60001 7.20005 3.60001C7.20005 4.55479 7.57933 5.47046 8.25446 6.14559C8.9296 6.82072 9.84527 7.20001 10.8 7.20001H13.2C14.1548 7.20001 15.0705 6.82072 15.7456 6.14559C16.4208 5.47046 16.8 4.55479 16.8 3.60001C17.4366 3.60001 18.047 3.85286 18.4971 4.30295C18.9472 4.75304 19.2 5.36349 19.2 6.00001V19.2C19.2 19.8365 18.9472 20.447 18.4971 20.8971C18.047 21.3471 17.4366 21.6 16.8 21.6H7.20005C6.56353 21.6 5.95308 21.3471 5.50299 20.8971C5.05291 20.447 4.80005 19.8365 4.80005 19.2V6.00001ZM8.40005 10.8C8.08179 10.8 7.77656 10.9264 7.55152 11.1515C7.32648 11.3765 7.20005 11.6817 7.20005 12C7.20005 12.3183 7.32648 12.6235 7.55152 12.8485C7.77656 13.0736 8.08179 13.2 8.40005 13.2H8.41205C8.73031 13.2 9.03553 13.0736 9.26058 12.8485C9.48562 12.6235 9.61205 12.3183 9.61205 12C9.61205 11.6817 9.48562 11.3765 9.26058 11.1515C9.03553 10.9264 8.73031 10.8 8.41205 10.8H8.40005ZM12 10.8C11.6818 10.8 11.3766 10.9264 11.1515 11.1515C10.9265 11.3765 10.8 11.6817 10.8 12C10.8 12.3183 10.9265 12.6235 11.1515 12.8485C11.3766 13.0736 11.6818 13.2 12 13.2H15.6C15.9183 13.2 16.2235 13.0736 16.4486 12.8485C16.6736 12.6235 16.8 12.3183 16.8 12C16.8 11.6817 16.6736 11.3765 16.4486 11.1515C16.2235 10.9264 15.9183 10.8 15.6 10.8H12ZM8.40005 15.6C8.08179 15.6 7.77656 15.7264 7.55152 15.9515C7.32648 16.1765 7.20005 16.4817 7.20005 16.8C7.20005 17.1183 7.32648 17.4235 7.55152 17.6485C7.77656 17.8736 8.08179 18 8.40005 18H8.41205C8.73031 18 9.03553 17.8736 9.26058 17.6485C9.48562 17.4235 9.61205 17.1183 9.61205 16.8C9.61205 16.4817 9.48562 16.1765 9.26058 15.9515C9.03553 15.7264 8.73031 15.6 8.41205 15.6H8.40005ZM12 15.6C11.6818 15.6 11.3766 15.7264 11.1515 15.9515C10.9265 16.1765 10.8 16.4817 10.8 16.8C10.8 17.1183 10.9265 17.4235 11.1515 17.6485C11.3766 17.8736 11.6818 18 12 18H15.6C15.9183 18 16.2235 17.8736 16.4486 17.6485C16.6736 17.4235 16.8 17.1183 16.8 16.8C16.8 16.4817 16.6736 16.1765 16.4486 15.9515C16.2235 15.7264 15.9183 15.6 15.6 15.6H12Z" fill="#111827"/>
</svg>
