<svg width="24" height="24" viewBox="0 0 24 24" fill="none" xmlns="http://www.w3.org/2000/svg">
<g clip-path="url(#clip0_37_2375)">
<rect width="24" height="24" rx="10" fill="#EEEEEE"/>
<path d="M14.828 7.75689L9.17204 13.4139C9.07653 13.5061 9.00035 13.6165 8.94794 13.7385C8.89553 13.8605 8.86795 13.9917 8.86679 14.1245C8.86564 14.2573 8.89094 14.3889 8.94122 14.5118C8.9915 14.6347 9.06576 14.7464 9.15965 14.8403C9.25354 14.9342 9.36519 15.0084 9.48809 15.0587C9.61098 15.109 9.74267 15.1343 9.87544 15.1331C10.0082 15.132 10.1394 15.1044 10.2614 15.052C10.3835 14.9996 10.4938 14.9234 10.586 14.8279L16.243 9.17189C16.8057 8.60923 17.1218 7.8461 17.1218 7.05039C17.1218 6.25467 16.8057 5.49154 16.243 4.92889C15.6804 4.36623 14.9173 4.05013 14.1215 4.05013C13.3258 4.05013 12.5627 4.36623 12 4.92889L6.34304 10.5859C5.86912 11.048 5.49167 11.5996 5.2326 12.2088C4.97353 12.8179 4.83799 13.4724 4.83384 14.1344C4.82969 14.7963 4.95702 15.4525 5.20844 16.0648C5.45986 16.6771 5.83036 17.2334 6.29846 17.7015C6.76655 18.1695 7.32293 18.5399 7.9353 18.7913C8.54767 19.0426 9.20385 19.1698 9.86578 19.1656C10.5277 19.1614 11.1822 19.0257 11.7913 18.7666C12.4004 18.5074 12.952 18.1299 13.414 17.6559L19.071 11.9999L20.485 13.4139L14.828 19.0709C14.178 19.7209 13.4063 20.2366 12.557 20.5884C11.7076 20.9402 10.7973 21.1212 9.87804 21.1212C8.95874 21.1212 8.04844 20.9402 7.19912 20.5884C6.3498 20.2366 5.57809 19.7209 4.92804 19.0709C4.278 18.4208 3.76236 17.6491 3.41056 16.7998C3.05875 15.9505 2.87769 15.0402 2.87769 14.1209C2.87769 13.2016 3.05875 12.2913 3.41056 11.442C3.76236 10.5926 4.278 9.82093 4.92804 9.17089L10.586 3.51489C11.5291 2.6041 12.7921 2.10013 14.103 2.11152C15.414 2.12291 16.6681 2.64875 17.5951 3.57579C18.5222 4.50284 19.048 5.7569 19.0594 7.06788C19.0708 8.37887 18.5668 9.64188 17.656 10.5849L12 16.2439C11.7214 16.5225 11.3906 16.7435 11.0265 16.8942C10.6624 17.045 10.2722 17.1225 9.87819 17.1225C9.48414 17.1224 9.09397 17.0448 8.72993 16.894C8.3659 16.7431 8.03514 16.5221 7.75654 16.2434C7.47794 15.9647 7.25696 15.6339 7.10621 15.2698C6.95546 14.9058 6.87789 14.5156 6.87794 14.1215C6.87798 13.7275 6.95564 13.3373 7.10648 12.9733C7.25732 12.6092 7.47838 12.2785 7.75704 11.9999L13.414 6.34289L14.828 7.75689Z" fill="black"/>
</g>
<defs>
<clipPath id="clip0_37_2375">
<rect width="24" height="24" rx="10" fill="white"/>
</clipPath>
</defs>
</svg>
