<svg width="72" height="60" viewBox="0 0 72 60" fill="none" xmlns="http://www.w3.org/2000/svg">
<path d="M37.6589 14.7727L37.5681 14.7462C37.0939 14.6082 36.8183 14.1187 36.962 13.6485L37.6589 14.7727ZM37.6589 14.7727L37.6627 14.7684M37.6589 14.7727L37.6627 14.7684M37.6627 14.7684C38.1077 14.8486 38.5534 14.5898 38.686 14.153C39.8861 10.2178 43.6687 7.46516 47.8868 7.46516C48.3802 7.46516 48.7867 7.07371 48.7867 6.58342C48.7867 6.09312 48.3802 5.70168 47.8868 5.70168C42.7119 5.70168 38.3599 9.06424 36.962 13.6484L37.6627 14.7684Z" fill="#483EA8" stroke="#F9FFF9" stroke-width="0.3"/>
<path d="M58.3837 42.4384H53.8848C53.4708 42.4384 53.135 42.1107 53.135 41.7067C53.135 41.3027 53.4708 40.9749 53.8848 40.9749H58.3837C64.5852 40.9749 69.631 36.0509 69.631 29.999C69.631 23.9471 64.5852 19.023 58.3837 19.023H58.2755C58.0581 19.023 57.8513 18.9311 57.7089 18.7706C57.5664 18.6101 57.5021 18.3974 57.5332 18.1873C57.6001 17.7315 57.6339 17.2737 57.6339 16.8279C57.6339 11.5829 53.2608 7.31531 47.8862 7.31531C45.7953 7.31531 43.8013 7.95296 42.1195 9.15978C41.7499 9.42478 41.2251 9.30718 41.0114 8.91047C36.2484 0.0596993 23.8082 -1.12887 17.3585 6.57053C14.6416 9.81417 13.574 14.0336 14.4295 18.146C14.5237 18.6002 14.1675 19.0236 13.6946 19.0236H13.3942C7.19268 19.0236 2.1469 23.9477 2.1469 29.9996C2.1469 36.0514 7.19268 40.9755 13.3942 40.9755H17.893C18.307 40.9755 18.6428 41.3032 18.6428 41.7072C18.6428 42.1113 18.307 42.439 17.893 42.439H13.3942C6.36563 42.439 0.647186 36.8585 0.647186 29.9995C0.647186 23.3329 6.04904 17.8742 12.8055 17.5731C12.1709 13.3066 13.3845 9.00295 16.1974 5.64437C23.1026 -2.5996 36.3361 -1.67556 41.9302 7.51707C43.7148 6.42522 45.7569 5.85244 47.8859 5.85244C54.3976 5.85244 59.5574 11.261 59.1059 17.58C65.8002 17.9463 71.1303 23.3763 71.1303 29.999C71.1303 36.8585 65.4119 42.4384 58.3834 42.4384L58.3837 42.4384Z" fill="#483EA8"/>
<path d="M16.8927 41.2935C16.8927 51.4669 25.3727 59.737 35.7884 59.737C46.2042 59.737 54.684 51.4667 54.684 41.2935C54.684 31.1201 46.2042 22.85 35.7884 22.85C25.3726 22.85 16.8927 31.1202 16.8927 41.2935ZM18.6927 41.2935C18.6927 32.1 26.3585 24.6138 35.7884 24.6138C45.2181 24.6138 52.8841 32.0999 52.8841 41.2935C52.8841 50.4869 45.2181 57.9732 35.7884 57.9732C26.3586 57.9732 18.6927 50.4871 18.6927 41.2935Z" fill="#483EA8" stroke="#F9FFF9" stroke-width="0.3"/>
<path d="M35.4321 48.6578C35.4321 49.0398 35.7486 49.3435 36.1311 49.3435C36.5135 49.3435 36.83 49.0403 36.83 48.6578V34.7292C36.83 34.3471 36.5135 34.0435 36.1311 34.0435C35.7486 34.0435 35.4321 34.3471 35.4321 34.7292V48.6578Z" fill="#483EA8" stroke="#483EA8" stroke-width="0.3"/>
<path d="M40.0297 39.5023C40.1662 39.6356 40.3452 39.7018 40.5226 39.7019L32.2325 39.5022L36.131 35.6977L40.0297 39.5023ZM31.2465 39.5023C31.5191 39.7684 31.9599 39.7686 32.2324 39.5023L40.5226 39.7019C40.6997 39.7018 40.8789 39.6361 41.0157 39.5021C41.2903 39.2339 41.2903 38.7981 41.0155 38.53L36.6239 34.2443C36.3512 33.9782 35.9104 33.9781 35.6379 34.2444L31.2465 38.53C30.9717 38.7981 30.9717 39.2342 31.2465 39.5023Z" fill="#483EA8" stroke="#483EA8" stroke-width="0.3"/>
</svg>
