<svg width="28" height="28" viewBox="0 0 28 28" fill="none" xmlns="http://www.w3.org/2000/svg">
<path fill-rule="evenodd" clip-rule="evenodd" d="M7.41021 10.2102C7.67275 9.94775 8.02878 9.80031 8.40001 9.80031C8.77124 9.80031 9.12727 9.94775 9.38981 10.2102L14 14.8204L18.6102 10.2102C18.7394 10.0765 18.8938 9.96984 19.0646 9.89647C19.2354 9.8231 19.4192 9.78447 19.605 9.78286C19.7909 9.78124 19.9753 9.81667 20.1473 9.88706C20.3194 9.95745 20.4757 10.0614 20.6072 10.1929C20.7386 10.3243 20.8426 10.4806 20.913 10.6527C20.9833 10.8247 21.0188 11.0091 21.0172 11.195C21.0155 11.3809 20.9769 11.5646 20.9035 11.7354C20.8302 11.9062 20.7235 12.0607 20.5898 12.1898L14.9898 17.7898C14.7273 18.0523 14.3712 18.1997 14 18.1997C13.6288 18.1997 13.2727 18.0523 13.0102 17.7898L7.41021 12.1898C7.14775 11.9273 7.00031 11.5712 7.00031 11.2C7.00031 10.8288 7.14775 10.4727 7.41021 10.2102V10.2102Z" fill="#111827"/>
</svg>
