<svg width="24" height="25" viewBox="0 0 24 25" fill="none" xmlns="http://www.w3.org/2000/svg">
<path d="M10.8 2.89999C10.4817 2.89999 10.1765 3.02642 9.95148 3.25147C9.72643 3.47651 9.60001 3.78173 9.60001 4.09999C9.60001 4.41825 9.72643 4.72348 9.95148 4.94852C10.1765 5.17357 10.4817 5.29999 10.8 5.29999H13.2C13.5183 5.29999 13.8235 5.17357 14.0485 4.94852C14.2736 4.72348 14.4 4.41825 14.4 4.09999C14.4 3.78173 14.2736 3.47651 14.0485 3.25147C13.8235 3.02642 13.5183 2.89999 13.2 2.89999H10.8Z" fill="#111827"/>
<path fill-rule="evenodd" clip-rule="evenodd" d="M4.79999 6.50001C4.79999 5.86349 5.05284 5.25304 5.50293 4.80295C5.95302 4.35286 6.56347 4.10001 7.19999 4.10001C7.19999 5.05479 7.57927 5.97046 8.2544 6.64559C8.92953 7.32072 9.84521 7.70001 10.8 7.70001H13.2C14.1548 7.70001 15.0704 7.32072 15.7456 6.64559C16.4207 5.97046 16.8 5.05479 16.8 4.10001C17.4365 4.10001 18.047 4.35286 18.497 4.80295C18.9471 5.25304 19.2 5.86349 19.2 6.50001V19.7C19.2 20.3365 18.9471 20.947 18.497 21.3971C18.047 21.8471 17.4365 22.1 16.8 22.1H7.19999C6.56347 22.1 5.95302 21.8471 5.50293 21.3971C5.05284 20.947 4.79999 20.3365 4.79999 19.7V6.50001ZM8.39999 11.3C8.08173 11.3 7.7765 11.4264 7.55146 11.6515C7.32642 11.8765 7.19999 12.1817 7.19999 12.5C7.19999 12.8183 7.32642 13.1235 7.55146 13.3485C7.7765 13.5736 8.08173 13.7 8.39999 13.7H8.41199C8.73025 13.7 9.03547 13.5736 9.26052 13.3485C9.48556 13.1235 9.61199 12.8183 9.61199 12.5C9.61199 12.1817 9.48556 11.8765 9.26052 11.6515C9.03547 11.4264 8.73025 11.3 8.41199 11.3H8.39999ZM12 11.3C11.6817 11.3 11.3765 11.4264 11.1515 11.6515C10.9264 11.8765 10.8 12.1817 10.8 12.5C10.8 12.8183 10.9264 13.1235 11.1515 13.3485C11.3765 13.5736 11.6817 13.7 12 13.7H15.6C15.9182 13.7 16.2235 13.5736 16.4485 13.3485C16.6736 13.1235 16.8 12.8183 16.8 12.5C16.8 12.1817 16.6736 11.8765 16.4485 11.6515C16.2235 11.4264 15.9182 11.3 15.6 11.3H12ZM8.39999 16.1C8.08173 16.1 7.7765 16.2264 7.55146 16.4515C7.32642 16.6765 7.19999 16.9817 7.19999 17.3C7.19999 17.6183 7.32642 17.9235 7.55146 18.1485C7.7765 18.3736 8.08173 18.5 8.39999 18.5H8.41199C8.73025 18.5 9.03547 18.3736 9.26052 18.1485C9.48556 17.9235 9.61199 17.6183 9.61199 17.3C9.61199 16.9817 9.48556 16.6765 9.26052 16.4515C9.03547 16.2264 8.73025 16.1 8.41199 16.1H8.39999ZM12 16.1C11.6817 16.1 11.3765 16.2264 11.1515 16.4515C10.9264 16.6765 10.8 16.9817 10.8 17.3C10.8 17.6183 10.9264 17.9235 11.1515 18.1485C11.3765 18.3736 11.6817 18.5 12 18.5H15.6C15.9182 18.5 16.2235 18.3736 16.4485 18.1485C16.6736 17.9235 16.8 17.6183 16.8 17.3C16.8 16.9817 16.6736 16.6765 16.4485 16.4515C16.2235 16.2264 15.9182 16.1 15.6 16.1H12Z" fill="#111827"/>
</svg>
