<svg width="24" height="24" viewBox="0 0 24 24" fill="none" xmlns="http://www.w3.org/2000/svg">
<path d="M10.4484 8.75159C10.2221 8.533 9.919 8.41205 9.60437 8.41479C9.28973 8.41752 8.98876 8.54372 8.76627 8.76621C8.54378 8.9887 8.41757 9.28968 8.41484 9.60431C8.41211 9.91895 8.53306 10.2221 8.75165 10.4484L11.1517 12.8484C11.3767 13.0734 11.6819 13.1997 12 13.1997C12.3182 13.1997 12.6234 13.0734 12.8484 12.8484L15.2484 10.4484C15.467 10.2221 15.588 9.91895 15.5853 9.60431C15.5825 9.28968 15.4563 8.9887 15.2338 8.76621C15.0113 8.54372 14.7104 8.41752 14.3957 8.41479C14.0811 8.41205 13.778 8.533 13.5517 8.75159L13.2001 9.10319V3.59999C13.2001 3.28173 13.0736 2.97651 12.8486 2.75147C12.6235 2.52642 12.3183 2.39999 12 2.39999C11.6818 2.39999 11.3766 2.52642 11.1515 2.75147C10.9265 2.97651 10.8 3.28173 10.8 3.59999V9.10319L10.4484 8.75159Z" fill="#111827"/>
<path d="M3.6001 6.00001C3.6001 5.36349 3.85295 4.75304 4.30304 4.30295C4.75313 3.85286 5.36358 3.60001 6.0001 3.60001H7.2001C7.51836 3.60001 7.82358 3.72643 8.04863 3.95148C8.27367 4.17652 8.4001 4.48175 8.4001 4.80001C8.4001 5.11827 8.27367 5.42349 8.04863 5.64853C7.82358 5.87358 7.51836 6.00001 7.2001 6.00001H6.0001V14.4H8.4001L9.6001 16.8H14.4001L15.6001 14.4H18.0001V6.00001H16.8001C16.4818 6.00001 16.1766 5.87358 15.9516 5.64853C15.7265 5.42349 15.6001 5.11827 15.6001 4.80001C15.6001 4.48175 15.7265 4.17652 15.9516 3.95148C16.1766 3.72643 16.4818 3.60001 16.8001 3.60001H18.0001C18.6366 3.60001 19.2471 3.85286 19.6972 4.30295C20.1472 4.75304 20.4001 5.36349 20.4001 6.00001V18C20.4001 18.6365 20.1472 19.247 19.6972 19.6971C19.2471 20.1471 18.6366 20.4 18.0001 20.4H6.0001C5.36358 20.4 4.75313 20.1471 4.30304 19.6971C3.85295 19.247 3.6001 18.6365 3.6001 18V6.00001Z" fill="#111827"/>
</svg>
